<svg xmlns="http://www.w3.org/2000/svg" xmlns:xlink="http://www.w3.org/1999/xlink" width="86" height="39" viewBox="0 0 86 39">
    <defs>
        <path id="a" d="M25.224 38.472H0V12.624C0 5.64 5.64 0 12.624 0c6.984 0 12.624 5.64 12.624 12.624v25.848h-.024z"/>
    </defs>
    <g fill="none" fill-rule="evenodd">
        <g>
            <mask id="b" fill="#fff">
                <use xlink:href="#a"/>
            </mask>
            <use fill="#F45543" fill-rule="nonzero" xlink:href="#a"/>
            <path fill="#2C2378" fill-rule="nonzero" d="M25.92 43.08L9.624 33.456l-2.472-3.72V8.664l3.864-2.568 2.952-1.56 1.92.624 10.536 7.128z" mask="url(#b)"/>
            <path fill="#FFF" fill-rule="nonzero" d="M9.696 33.48a5 5 0 0 1-1.992-1.872c-.48-.792-.696-1.728-.696-2.784V9.648c0-1.056.24-1.992.696-2.808a4.69 4.69 0 0 1 1.992-1.872c.84-.432 1.824-.648 2.952-.648 1.104 0 2.064.216 2.928.648.84.432 1.512 1.032 1.968 1.776.48.744.696 1.584.696 2.496v.048c0 .24-.12.36-.36.36h-2.328a.642.642 0 0 1-.264-.048c-.072-.024-.096-.072-.096-.12v-.144c0-.672-.24-1.224-.696-1.68-.456-.456-1.08-.696-1.848-.696-.792 0-1.416.24-1.872.72-.456.48-.696 1.128-.696 1.896v19.32c0 .792.264 1.416.768 1.896s1.152.72 1.92.72c.744 0 1.344-.192 1.8-.6.456-.408.672-.96.672-1.656v-.96c0-.096-.048-.12-.12-.12h-2.304c-.24 0-.36-.12-.36-.36V26.04c0-.24.12-.36.36-.36h5.088c.24 0 .36.12.36.36v2.76c0 1.104-.24 2.064-.696 2.856a4.441 4.441 0 0 1-1.968 1.848c-.84.432-1.824.648-2.952.648s-2.112-.216-2.952-.672" mask="url(#b)"/>
        </g>
        <g fill="#2C2378" fill-rule="nonzero">
            <path d="M37.272 13.416c1.344.6 2.016 1.656 2.016 3.192 0 1.176-.384 2.088-1.176 2.712-.768.648-1.8.96-3.048.96h-4.656c-.096 0-.168-.024-.216-.072-.048-.048-.072-.12-.072-.216V7.176c0-.096.024-.168.072-.216.048-.048.12-.072.216-.072h4.512c1.32 0 2.352.312 3.096.912.744.6 1.104 1.488 1.104 2.64 0 1.368-.6 2.304-1.824 2.856-.072.048-.072.072-.024.12zm-5.304-4.848v4.008c0 .072.024.096.096.096h2.88c.744 0 1.32-.192 1.752-.552.432-.36.648-.864.648-1.512s-.216-1.176-.648-1.56c-.432-.384-1.008-.576-1.752-.576h-2.88c-.072 0-.096.024-.096.096zm4.848 9.504c.432-.408.648-.936.648-1.632 0-.696-.216-1.224-.648-1.632-.432-.408-1.032-.6-1.776-.6h-2.976c-.072 0-.096.024-.096.096V18.6c0 .072.024.096.096.096h3.024c.72-.024 1.296-.216 1.728-.624zM47.376 10.8c.576.264 1.032.648 1.344 1.152.312.48.48 1.056.48 1.68v6.36c0 .096-.024.168-.072.216-.048.048-.12.072-.216.072H47.64c-.096 0-.168-.024-.216-.072-.048-.048-.072-.12-.072-.216v-.528c0-.048-.024-.072-.048-.072-.024-.024-.048 0-.072.024-.36.336-.792.576-1.272.768a4.91 4.91 0 0 1-1.608.264c-.936 0-1.704-.24-2.304-.72-.6-.48-.888-1.2-.888-2.16 0-.984.336-1.776 1.032-2.352.696-.576 1.656-.84 2.928-.84h2.112c.072 0 .096-.024.096-.096v-.504c0-.552-.168-1.008-.48-1.32-.336-.312-.816-.48-1.488-.48-.528 0-.936.096-1.272.288a1.399 1.399 0 0 0-.648.792c-.048.168-.168.24-.336.24l-1.368-.168c-.096-.024-.168-.048-.216-.096-.048-.048-.072-.096-.048-.168.12-.72.528-1.32 1.224-1.8.696-.456 1.584-.696 2.616-.696.792.024 1.488.168 2.064.432zm-.792 7.536c.504-.36.744-.816.744-1.368v-1.104c0-.072-.024-.096-.096-.096h-1.776c-.744 0-1.344.144-1.8.432-.456.288-.672.696-.672 1.224 0 .48.168.84.504 1.08.336.24.768.36 1.32.36a2.784 2.784 0 0 0 1.776-.528zM53.064 20.04c-.576-.24-1.032-.552-1.344-.936-.312-.408-.48-.84-.48-1.32v-.12c0-.096.024-.168.072-.216.048-.048.12-.072.216-.072h1.176a.48.48 0 0 1 .216.048c.048.024.072.048.072.096v.144c0 .36.192.672.576.936.384.264.888.408 1.464.408s1.056-.12 1.416-.384c.36-.24.528-.576.528-.936 0-.36-.168-.648-.504-.84-.336-.192-.864-.384-1.608-.576a12.269 12.269 0 0 1-1.824-.624c-.48-.216-.912-.504-1.248-.888-.336-.384-.504-.888-.504-1.512 0-.864.336-1.536 1.008-2.04.672-.504 1.56-.744 2.664-.744.744 0 1.392.12 1.968.36.576.24 1.008.576 1.32.984.312.408.456.888.456 1.416a.273.273 0 0 1-.072.192c-.048.048-.12.072-.216.072h-1.152a.48.48 0 0 1-.216-.048c-.048-.024-.072-.048-.072-.096V13.2c0-.36-.192-.672-.552-.936-.36-.24-.864-.384-1.488-.384-.552 0-1.008.12-1.368.336-.36.216-.528.504-.528.888 0 .36.168.648.504.84.336.192.888.384 1.632.624.744.216 1.344.408 1.848.6.48.192.912.48 1.248.888.336.384.528.888.528 1.512 0 .864-.336 1.56-1.032 2.064-.672.504-1.608.768-2.736.768-.72 0-1.392-.12-1.968-.36zM61.056 20.208c-.048-.048-.072-.12-.072-.216V7.176c0-.096.024-.168.072-.216.048-.048.12-.072.216-.072h1.272c.096 0 .168.024.216.072.048.048.072.12.072.216V14.4c0 .048.024.072.048.072.024.024.048 0 .072-.048l3.48-3.744a.436.436 0 0 1 .336-.144h1.464c.144 0 .24.048.24.144 0 .072-.024.12-.072.192l-2.352 2.736c-.048.048-.048.072-.024.144l2.832 6.168.048.144c0 .12-.072.192-.24.192H67.32c-.168 0-.264-.072-.336-.216l-2.208-5.136c-.024-.024-.024-.048-.072-.048-.024 0-.048 0-.072.024l-1.776 1.944c-.024.048-.048.096-.048.144v2.976c0 .096-.024.168-.072.216-.048.048-.12.072-.216.072h-1.272c-.072.048-.144.024-.192-.024zM76.536 17.664c.072-.12.144-.168.216-.168.072 0 .12.024.168.048l.792.48c.096.072.144.144.144.24l-.048.144c-.336.624-.84 1.104-1.464 1.464-.624.36-1.368.528-2.208.528-.912 0-1.68-.192-2.304-.6a3.746 3.746 0 0 1-1.416-1.728c-.312-.768-.48-1.68-.48-2.736 0-.936.072-1.632.216-2.112.24-.888.696-1.584 1.368-2.088.696-.504 1.512-.768 2.496-.768 1.2 0 2.136.312 2.784.936.648.624 1.056 1.536 1.248 2.736.072.48.12 1.056.144 1.728 0 .192-.096.288-.288.288h-6.048c-.072 0-.096.024-.096.096.024.48.072.84.144 1.032.144.504.432.912.84 1.2.432.288.936.432 1.56.432 1.032.024 1.776-.36 2.232-1.152zm-3.864-5.28c-.36.264-.6.648-.72 1.104-.096.288-.144.648-.168 1.08 0 .072.024.096.096.096h4.344c.072 0 .096-.024.096-.096a5.284 5.284 0 0 0-.12-.936 2.234 2.234 0 0 0-.744-1.2 2.273 2.273 0 0 0-1.416-.456c-.552 0-1.008.144-1.368.408zM85.104 11.976c-.048.048-.12.072-.216.072h-1.944c-.072 0-.096.024-.096.096v4.992c0 .552.12.936.36 1.176.24.24.624.336 1.128.336h.456c.096 0 .168.024.216.072.048.048.072.12.072.216v.984c0 .168-.096.288-.288.312l-.792.024c-.984 0-1.704-.168-2.208-.528-.48-.336-.72-.984-.72-1.92v-5.664c0-.072-.024-.096-.096-.096H79.92c-.096 0-.168-.024-.216-.072-.048-.048-.072-.12-.072-.216v-.936c0-.096.024-.168.072-.216.048-.048.12-.072.216-.072h1.056c.072 0 .096-.024.096-.096V8.304c0-.096.024-.168.072-.216.048-.048.12-.072.216-.072h1.176c.096 0 .168.024.216.072.048.048.072.12.072.216v2.136c0 .072.024.096.096.096h1.944c.096 0 .168.024.216.072.048.048.072.12.072.216v.936c.024.096 0 .168-.048.216z"/>
            <g>
                <path d="M31.944 35.28c-.792-.432-1.416-1.008-1.848-1.776-.432-.768-.648-1.656-.648-2.64V27.24c0-.984.216-1.872.648-2.64.432-.768 1.056-1.344 1.848-1.776.792-.432 1.728-.624 2.76-.624 1.008 0 1.92.192 2.736.6.792.408 1.416.936 1.872 1.632.456.696.648 1.44.648 2.256 0 .216-.12.312-.36.312h-2.856c-.24 0-.36-.024-.36-.096v-.072c0-.432-.144-.792-.456-1.08-.288-.312-.72-.456-1.224-.456s-.912.168-1.224.504c-.312.336-.456.792-.456 1.344v3.816c0 .552.168.984.528 1.344.36.336.792.528 1.32.528.48 0 .864-.12 1.152-.384.288-.264.456-.624.456-1.08v-.192c0-.096-.048-.144-.144-.144h-1.56c-.24 0-.36-.12-.36-.36v-2.136c0-.24.12-.36.36-.36H39.6c.24 0 .36.12.36.36v2.544c0 .936-.216 1.776-.648 2.52-.432.744-1.056 1.32-1.848 1.728-.792.408-1.704.624-2.736.624-1.08-.048-1.992-.24-2.784-.672zM48 26.112c.72.288 1.296.696 1.728 1.2.432.504.624 1.056.624 1.656V35.4c0 .24-.12.36-.36.36h-2.88c-.24 0-.36-.12-.36-.36v-.336c0-.072-.024-.096-.048-.12-.024-.024-.072 0-.12.048a1.96 1.96 0 0 1-.888.696c-.384.144-.864.216-1.44.216-1.056 0-1.872-.24-2.472-.72-.6-.48-.888-1.176-.888-2.088 0-.96.336-1.704 1.032-2.232.672-.528 1.68-.792 2.976-.792h1.728c.096 0 .144-.048.144-.144v-.288a.822.822 0 0 0-.288-.648c-.192-.168-.456-.24-.792-.24-.216 0-.408.024-.576.096a.955.955 0 0 0-.384.288c-.072.096-.144.168-.192.216-.048.048-.12.048-.24.048l-2.952-.384c-.24-.024-.336-.12-.336-.288.048-.576.288-1.08.696-1.56.408-.456.96-.816 1.632-1.08a6.186 6.186 0 0 1 2.256-.408c.888-.024 1.68.12 2.4.432zm-1.632 6.984c.264-.216.384-.504.384-.888v-.192c0-.096-.048-.144-.144-.144h-.888c-.792 0-1.2.264-1.2.792 0 .24.072.408.216.552.144.144.36.216.648.216.408 0 .72-.12.984-.336zM57.696 28.68h-1.464c-.096 0-.144.048-.144.144v2.856c0 .648.24.96.696.96h.624c.24 0 .36.12.36.36v2.304c0 .216-.12.336-.336.36-.504.048-.96.048-1.368.048-1.152 0-2.016-.168-2.568-.528s-.84-1.032-.84-2.016v-4.32c0-.096-.048-.144-.144-.144H51.6c-.24 0-.36-.12-.36-.36v-2.136c0-.24.12-.36.36-.36h.888c.096 0 .144-.048.144-.144v-2.16c0-.24.12-.36.36-.36h2.712c.24 0 .36.12.36.36v2.16c0 .096.048.144.144.144h1.464c.24 0 .36.12.36.36v2.136c.024.216-.096.336-.336.336zM65.496 32.736c.336-.096.6-.216.816-.384.096-.072.192-.12.24-.12.096 0 .168.048.24.144l1.296 1.8c.072.096.096.168.096.24 0 .096-.048.168-.144.264a3.972 3.972 0 0 1-1.68.936 7.483 7.483 0 0 1-2.112.312c-.96 0-1.8-.168-2.544-.504a4.617 4.617 0 0 1-1.8-1.44c-.648-.888-.96-1.968-.96-3.24 0-.552.072-1.08.216-1.608a4.485 4.485 0 0 1 1.728-2.496c.864-.624 1.848-.936 3-.936 1.32 0 2.376.432 3.192 1.272.816.84 1.344 2.016 1.608 3.48.072.312.096.624.12.912 0 .24-.12.36-.36.36H62.76c-.096 0-.144.048-.144.168l.096.24c.24.504.792.768 1.656.768a5.08 5.08 0 0 0 1.128-.168zm-2.712-3.24l-.048.144-.024.048c0 .072.048.12.144.12h2.064c.096 0 .144-.048.144-.12 0-.048 0-.072-.024-.12s-.024-.072-.048-.096c-.216-.504-.6-.768-1.128-.768-.528.048-.888.288-1.08.792z"/>
            </g>
        </g>
    </g>
</svg>
