<svg xmlns="http://www.w3.org/2000/svg" xmlns:xlink="http://www.w3.org/1999/xlink" width="53" height="81" viewBox="0 0 53 81">
    <defs>
        <path id="a" d="M0 .066h31.852v30.408H0z"/>
    </defs>
    <g fill="none" fill-rule="evenodd">
        <path fill="#2C2378" d="M30.656 46.017l-21.728.077-.73-8.466h22.78zM25.78 76.981l-.28 1.477c.05.951.932 1.637 1.866 1.452l1.58-.314a1.565 1.565 0 0 0 1.17-2.055l-.749-1.273-3.588.713z"/>
        <path fill="#2C2378" d="M19.84 45.778L24.838 77.1l5.872-.567-.03-36.728M13.338 80.567l1.61.027a1.565 1.565 0 0 0 1.578-1.762l-.463-1.401-3.658-.062-.586 1.384a1.565 1.565 0 0 0 1.519 1.814"/>
        <path fill="#2C2378" d="M8.464 39.805l2.746 37.907h6.01l2.118-31.931"/>
        <g transform="translate(0 12.621)">
            <mask id="b" fill="#fff">
                <use xlink:href="#a"/>
            </mask>
            <path fill="#F45543" d="M30.978 1.253A1.703 1.703 0 0 0 29.355.066H9.884c-.742 0-1.398.48-1.623 1.187L.039 28.395c-.14.449.111.926.56 1.065l3.14.976a.851.851 0 0 0 1.067-.56l5.97-21.497a.508.508 0 0 1 .484-.356L7.388 27.437h24.464L27.979 8.023c.222 0 .418.144.485.356" mask="url(#b)"/>
        </g>
        <path fill="#F45543" d="M26.672 17.045l5.954 14.092 15.664 1.118c.463.065.884-.29.94-.793l.354-3.17c.055-.5-.272-.956-.732-1.02l-13.385-1.386-4.492-12.023"/>
        <path fill="#2C2378" d="M25.58 5.985a5.841 5.841 0 1 1-11.683 0 5.841 5.841 0 0 1 11.683 0M52.029 33.282H48.28l-1.78-6.313-1.881-.154 1.828 6.467h-8.03l1.961-6.954-1.757-.183-2.037 7.137h-4.05v2.456H52.03zM47.91 45.15h-1.391l.537-6.77 1.87-.005-1.016 6.776zm-2.167 0h-1.711v-6.775h1.971l-.26 6.776zm-4.253 0h1.712v-6.775H41.49v6.776zm-.835 0h-1.712l-.26-6.775h1.972v6.776zm-3.879 0l-1.016-6.775 1.87.005.537 6.77h-1.39zm14.284-8.463H33.505l1.865 10.146h14l1.69-10.146z"/>
    </g>
</svg>
