<svg xmlns="http://www.w3.org/2000/svg" width="103" height="34" viewBox="0 0 103 34">
    <g fill="none" fill-rule="evenodd">
        <path fill="#FFF" d="M58.346 16.514a3.9 3.9 0 0 1-.062.597c-.22.754-1.006 1.382-1.98 1.382-.816 0-1.444-.47-1.444-1.445 0-1.476 1.632-1.884 3.486-1.884v1.35zm2.921-2.606c0-2.45-1.037-4.617-4.586-4.617-1.82 0-3.266.502-4.05.973l.565 1.98c.721-.44 1.852-.817 2.952-.817 1.79 0 2.072 1.004 2.072 1.664v.157c-3.895 0-6.375 1.35-6.375 4.114 0 1.696 1.256 3.266 3.454 3.266 1.351 0 2.482-.533 3.141-1.382h.063s.44 1.853 2.92 1.163c-.125-.786-.156-1.602-.156-2.607v-3.894zM.372 5.994s2.543 10.458 2.952 12.154c.47 1.978 1.319 2.7 3.8 2.23l1.602-6.501c.408-1.602.69-2.764.942-4.397h.03c.19 1.664.44 2.795.786 4.397 0 0 .659 2.952.974 4.49.346 1.54 1.256 2.513 3.674 1.979l3.8-14.384h-3.078l-1.287 6.219c-.345 1.82-.66 3.234-.911 4.868h-.031c-.22-1.634-.503-2.984-.848-4.774l-1.35-6.344H8.223l-1.445 6.187c-.408 1.884-.785 3.392-1.036 4.993H5.71a221.703 221.703 0 0 0-.943-5.213S3.92 7.47 3.606 5.962H.372v.032zM24.742 16.514a3.9 3.9 0 0 1-.062.597c-.22.754-1.005 1.382-1.98 1.382-.815 0-1.443-.47-1.443-1.445 0-1.476 1.632-1.884 3.485-1.884v1.35zm2.92-2.606c0-2.45-1.035-4.617-4.584-4.617-1.821 0-3.267.502-4.052.973l.566 1.98c.722-.44 1.853-.817 2.952-.817 1.79 0 2.073 1.004 2.073 1.664v.157c-3.863-.03-6.345 1.35-6.345 4.083 0 1.696 1.257 3.266 3.455 3.266 1.35 0 2.482-.534 3.14-1.382h.063s.44 1.853 2.92 1.162c-.125-.785-.156-1.602-.156-2.607v-3.862h-.031zM32.531 17.3V5.992H29.61v14.352h2.921zM70.752 5.994v10.615c0 1.476.282 2.48.879 3.109.503.534 1.35.91 2.387.91.848 0 1.727-.156 2.104-.313l-.031-2.293c-.315.063-.628.126-1.1.126-1.005 0-1.318-.628-1.318-1.947v-4.083h2.544V9.354h-2.544v-3.36h-2.921zM63.215 9.542v10.803h3.015v-5.527c0-.314.03-.566.062-.785.22-1.162 1.1-1.885 2.387-1.885.346 0 .597.032.88.063V9.385c-.22-.03-.377-.063-.66-.063-1.13 0-2.418.722-2.953 2.293h-.093V9.573h-2.638v-.03zM34.572 9.542v10.803h2.952v-6.312c0-.283.031-.597.126-.88.251-.628.848-1.382 1.79-1.382 1.194 0 1.728 1.005 1.728 2.45v6.156h2.92v-6.439c0-.282.032-.627.126-.879.251-.722.879-1.319 1.758-1.319 1.194 0 1.79.974 1.79 2.67v5.904h2.921v-6.313c0-3.36-1.696-4.679-3.611-4.679-.849 0-1.539.22-2.136.596a4.695 4.695 0 0 0-1.382 1.351h-.031c-.472-1.162-1.57-1.947-2.984-1.947-1.821 0-2.638.942-3.141 1.727h-.031V9.573h-2.795v-.03z"/>
        <path fill="#FEBC11" d="M92.673 17.928c-.062-.377-.534-.691-1.131-.691s-1.067.314-1.13.69l-.565 6.502c0 .628.754 1.162 1.695 1.162.943 0 1.696-.534 1.696-1.162l-.565-6.501zM87.993 16.514c.314-.25.346-.816.03-1.319-.281-.502-.784-.754-1.16-.628l-5.904 2.764c-.566.314-.63 1.225-.157 2.041.47.817 1.319 1.225 1.852.88l5.339-3.738zM96.221 14.599c-.377-.125-.879.125-1.162.628-.282.502-.282 1.068.031 1.319l5.34 3.738c.564.314 1.381-.063 1.853-.88.47-.817.408-1.727-.158-2.073l-5.904-2.732zM92.704 8.443c-.062.377-.533.69-1.131.69-.564 0-1.067-.313-1.13-.69l-.565-6.501c0-.628.754-1.162 1.695-1.162.943 0 1.696.534 1.696 1.162l-.565 6.5zM96.253 11.804c-.377.157-.88-.126-1.162-.628-.282-.503-.251-1.068.03-1.32l5.34-3.737c.565-.314 1.383.063 1.854.88.47.816.408 1.727-.158 2.073l-5.904 2.732zM88.024 9.825c.314.251.346.816.032 1.32-.283.501-.785.753-1.162.627L80.99 9.008c-.566-.314-.628-1.225-.157-2.04.47-.818 1.32-1.226 1.852-.88l5.34 3.737z"/>
        <path fill="#FFF" d="M44.433 30.239c-.597.188-1.664.439-2.669.439-1.508 0-2.544-.377-3.235-1.036-.722-.691-1.099-1.696-1.099-2.795 0-2.701 2.01-4.051 4.523-4.051 1.036 0 1.821.188 2.23.377l-.409 1.664c-.44-.188-.974-.346-1.82-.346-1.258 0-2.326.66-2.326 2.23 0 1.445.943 2.293 2.2 2.293.281 0 .533-.031.658-.063v-1.32H41.45v-1.6h3.014v4.208h-.03zM45.282 26.847c0-.88 0-1.444-.032-1.884h1.759l.094 1.005h.032a1.59 1.59 0 0 1 1.507-1.131c.189 0 .25 0 .409.03v1.949c-.158-.031-.315-.063-.535-.063-.596 0-1.005.25-1.13.722 0 .095-.032.22-.032.346v2.795h-2.072v-3.77zM52.191 29.265c.564 0 .848-.597.848-1.476 0-.785-.25-1.476-.848-1.476-.69 0-.91.754-.91 1.476 0 .848.25 1.476.91 1.476m-.063 1.445c-1.696 0-2.984-1.068-2.984-2.89 0-1.79 1.193-2.983 3.11-2.983 1.758 0 2.92 1.193 2.92 2.89 0 2.04-1.476 2.983-3.046 2.983M60.136 30.459c-.346.157-.91.25-1.539.25-1.884 0-3.046-1.098-3.046-2.888 0-1.602 1.1-2.985 3.297-2.985.408 0 .88.064 1.288.19l-.283 1.507c-.188-.095-.47-.125-.879-.125-.754 0-1.319.532-1.319 1.35 0 .91.628 1.35 1.35 1.35.346 0 .628-.031.911-.156l.22 1.506z"/>
        <path fill="#FFF" d="M63.748 27.098c0-.314-.157-.91-.816-.91-.597 0-.848.564-.88.91h1.696zm-1.664 1.413c.062.44.722.691 1.444.691a5.04 5.04 0 0 0 1.539-.22l.25 1.382c-.69.252-1.412.346-2.102.346-1.98 0-3.11-1.1-3.11-2.858 0-1.319.848-2.984 2.92-2.984 1.823 0 2.608 1.351 2.608 2.89 0 .345-.031.628-.095.785h-3.454v-.032zM66.198 26.847c0-.88 0-1.444-.031-1.884h1.758l.094 1.005h.032a1.592 1.592 0 0 1 1.507-1.131c.189 0 .251 0 .409.03v1.949c-.158-.031-.315-.063-.535-.063-.596 0-1.005.25-1.13.722 0 .095-.032.22-.032.346v2.795h-2.072v-3.77zM72.29 24.962l.69 2.544c.096.314.159.722.252 1.005h.033c.062-.283.125-.722.219-1.005l.502-2.544h2.199l-1.194 3.581c-.847 2.355-1.382 3.203-2.01 3.768a3.448 3.448 0 0 1-1.883.817l-.41-1.728c.22-.03.472-.094.723-.22.25-.094.534-.345.659-.502.064-.094.095-.157.095-.25 0-.064 0-.158-.095-.284l-2.072-5.182h2.293z"/>
    </g>
</svg>
